<?xml version="1.0" encoding="UTF-8"?>
<!DOCTYPE svg PUBLIC "-//W3C//DTD SVG 1.1//EN" "http://www.w3.org/Graphics/SVG/1.1/DTD/svg11.dtd">
<svg xmlns="http://www.w3.org/2000/svg" version="1.1" width="584px" height="100px" style="shape-rendering:geometricPrecision; text-rendering:geometricPrecision; image-rendering:optimizeQuality; fill-rule:evenodd; clip-rule:evenodd" xmlns:xlink="http://www.w3.org/1999/xlink">
<g><path style="opacity:0.971" fill="#e00012" d="M 6.5,-0.5 C 18.8333,-0.5 31.1667,-0.5 43.5,-0.5C 41.6823,6.43844 40.0157,13.4384 38.5,20.5C 36.6301,23.8088 35.6301,27.4754 35.5,31.5C 26.7489,31.1968 18.0823,31.5301 9.5,32.5C 6.16667,32.5 2.83333,32.5 -0.5,32.5C -0.5,30.8333 -0.5,29.1667 -0.5,27.5C 2.07109,18.3375 4.40442,9.00415 6.5,-0.5 Z"/></g>
<g><path style="opacity:0.93" fill="#00438d" d="M 329.5,19.5 C 338.859,19.003 347.859,20.503 356.5,24C 363.779,29.3999 366.445,36.5666 364.5,45.5C 356.804,45.8308 349.138,45.4975 341.5,44.5C 342.232,40.9178 340.898,38.0845 337.5,36C 328.74,34.2993 321.907,37.1326 317,44.5C 312.051,53.5768 310.051,63.2435 311,73.5C 314.981,81.3774 321.147,83.5441 329.5,80C 332.648,77.891 334.981,75.0577 336.5,71.5C 343.803,70.5027 351.137,70.1694 358.5,70.5C 356.102,84.0657 348.102,92.2324 334.5,95C 321.306,98.0438 308.64,96.7104 296.5,91C 290.576,84.9011 287.576,77.5678 287.5,69C 289.233,41.7878 303.233,25.2878 329.5,19.5 Z"/></g>
<g><path style="opacity:0.963" fill="#08438c" d="M 38.5,20.5 C 52.8333,20.5 67.1667,20.5 81.5,20.5C 80.3254,27.5314 78.9921,34.5314 77.5,41.5C 71.1318,41.1703 64.7985,41.5037 58.5,42.5C 54.3422,60.1311 50.3422,77.7977 46.5,95.5C 35.8489,96.6657 25.1823,96.8324 14.5,96C 18.8153,77.9259 22.8153,59.7593 26.5,41.5C 20.1579,41.6662 13.8246,41.4995 7.5,41C 8.48169,38.2617 9.14836,35.4284 9.5,32.5C 18.0823,31.5301 26.7489,31.1968 35.5,31.5C 35.6301,27.4754 36.6301,23.8088 38.5,20.5 Z"/></g>
<g><path style="opacity:0.935" fill="#00438d" d="M 373.5,21.5 C 380.532,21.1697 387.532,21.503 394.5,22.5C 388.911,46.7803 383.577,71.1137 378.5,95.5C 371.833,95.5 365.167,95.5 358.5,95.5C 363.242,70.7878 368.242,46.1212 373.5,21.5 Z"/></g>
<g><path style="opacity:0.934" fill="#00438d" d="M 583.5,21.5 C 583.5,23.1667 583.5,24.8333 583.5,26.5C 578.228,48.606 573.394,70.9393 569,93.5C 562.789,95.4343 556.289,96.101 549.5,95.5C 549.66,93.8008 549.494,92.1341 549,90.5C 539.349,97.3737 529.182,98.207 518.5,93C 516.57,90.7417 515.07,88.2417 514,85.5C 511.379,70.0229 515.879,57.1895 527.5,47C 537.736,40.9136 547.736,41.0803 557.5,47.5C 559.883,38.9171 561.883,30.2504 563.5,21.5C 570.167,21.5 576.833,21.5 583.5,21.5 Z M 545.5,54.5 C 551.473,54.4734 554.473,57.4734 554.5,63.5C 553.892,71.1815 550.892,77.6815 545.5,83C 540.827,85.4157 537.327,84.249 535,79.5C 534.077,73.1894 535.077,67.1894 538,61.5C 539.742,58.2543 542.242,55.921 545.5,54.5 Z"/></g>
<g><path style="opacity:0.928" fill="#00438d" d="M 420.5,41.5 C 445.865,40.0148 455.031,51.3481 448,75.5C 441.457,89.6966 430.291,96.6966 414.5,96.5C 391.266,96.7013 383.099,85.7013 390,63.5C 396.092,50.3827 406.259,43.0494 420.5,41.5 Z M 420.5,53.5 C 424.493,53.2447 427.326,54.9114 429,58.5C 430.124,67.7948 427.624,75.9615 421.5,83C 414.148,86.5681 409.814,84.4014 408.5,76.5C 409.098,70.1069 410.931,64.1069 414,58.5C 415.805,56.1743 417.972,54.5077 420.5,53.5 Z"/></g>
<g><path style="opacity:0.925" fill="#00438d" d="M 109.5,42.5 C 117.32,41.5986 123.487,44.2653 128,50.5C 135.201,43.768 143.701,41.268 153.5,43C 158.235,44.0681 161.402,46.9014 163,51.5C 163.667,55.5 163.667,59.5 163,63.5C 160.511,74.1183 158.345,84.785 156.5,95.5C 149.5,95.5 142.5,95.5 135.5,95.5C 137.831,84.1797 140.164,72.8463 142.5,61.5C 142.232,58.0652 140.399,56.0652 137,55.5C 132.461,55.9279 129.461,58.2612 128,62.5C 125.689,73.2212 123.189,83.8879 120.5,94.5C 113.866,95.4967 107.2,95.83 100.5,95.5C 102.602,83.931 104.935,72.431 107.5,61C 105.552,55.3806 101.886,54.0473 96.5,57C 94.9512,58.214 93.7845,59.714 93,61.5C 90.1817,72.7722 87.6817,84.1055 85.5,95.5C 78.4684,95.8303 71.4684,95.497 64.5,94.5C 68.4842,77.8971 72.1509,61.2304 75.5,44.5C 82.1335,43.5033 88.8002,43.17 95.5,43.5C 95.1489,45.8695 94.9822,48.2028 95,50.5C 98.8526,45.8448 103.686,43.1781 109.5,42.5 Z"/></g>
<g><path style="opacity:0.921" fill="#00438d" d="M 191.5,42.5 C 199.668,41.95 207.668,42.7833 215.5,45C 219.692,47.2063 222.025,50.7063 222.5,55.5C 219.421,68.3971 216.921,81.3971 215,94.5C 208.59,95.4777 202.09,95.811 195.5,95.5C 195.66,93.8008 195.494,92.1341 195,90.5C 192.374,93.2308 189.207,95.0642 185.5,96C 164.962,99.4763 158.462,91.643 166,72.5C 170.276,67.2276 175.776,64.0609 182.5,63C 188.803,62.058 195.137,61.3914 201.5,61C 204.318,54.3942 202.318,51.7275 195.5,53C 193.269,54.2773 191.602,56.1106 190.5,58.5C 184.202,59.4963 177.868,59.8297 171.5,59.5C 171.681,55.3046 173.347,51.8046 176.5,49C 181.148,45.771 186.148,43.6043 191.5,42.5 Z M 191.5,71.5 C 194.247,71.1866 196.914,71.52 199.5,72.5C 198.399,76.5381 196.399,80.0381 193.5,83C 184.675,86.1756 182.008,83.5089 185.5,75C 187.432,73.5415 189.432,72.3748 191.5,71.5 Z"/></g>
<g><path style="opacity:0.906" fill="#00438d" d="M 230.5,43.5 C 238.5,43.5 246.5,43.5 254.5,43.5C 255.008,48.5431 255.842,53.5431 257,58.5C 260.042,53.5812 263.209,48.7478 266.5,44C 273.524,43.1689 280.524,43.3356 287.5,44.5C 280.313,52.5194 273.313,60.6861 266.5,69C 270.591,77.6785 274.257,86.5119 277.5,95.5C 269.826,95.6664 262.159,95.4997 254.5,95C 253.002,89.5149 251.502,84.0149 250,78.5C 246.29,84.0873 242.457,89.5873 238.5,95C 231.476,95.8311 224.476,95.6644 217.5,94.5C 225.353,85.8144 233.02,76.9811 240.5,68C 236.748,59.9976 233.415,51.8309 230.5,43.5 Z"/></g>
<g><path style="opacity:0.929" fill="#00438d" d="M 459.5,43.5 C 466.167,43.5 472.833,43.5 479.5,43.5C 477.487,54.886 475.154,66.2193 472.5,77.5C 472.829,81.162 474.829,83.162 478.5,83.5C 482.84,82.9232 485.673,80.5899 487,76.5C 489.948,65.5915 492.448,54.5915 494.5,43.5C 501.167,43.5 507.833,43.5 514.5,43.5C 511.296,60.8534 507.963,78.1868 504.5,95.5C 497.833,95.5 491.167,95.5 484.5,95.5C 484.785,93.712 484.452,92.0453 483.5,90.5C 474.748,97.3792 465.414,98.2125 455.5,93C 453.298,89.6688 451.964,86.0021 451.5,82C 453.977,69.1158 456.643,56.2825 459.5,43.5 Z"/></g>
</svg>
