<?xml version="1.0" standalone="no"?>
<!DOCTYPE svg PUBLIC "-//W3C//DTD SVG 20010904//EN"
 "http://www.w3.org/TR/2001/REC-SVG-20010904/DTD/svg10.dtd">
<svg version="1.0" xmlns="http://www.w3.org/2000/svg"
 width="584.000000pt" height="100.000000pt" viewBox="0 0 584.000000 100.000000"
 preserveAspectRatio="xMidYMid meet">

<g transform="translate(0.000000,100.000000) scale(0.100000,-0.100000)"
fill="#000000" stroke="none">
<path d="M39 842 l-36 -157 54 -3 54 -3 -6 -32 c-4 -18 -9 -40 -11 -49 -5 -16
4 -18 91 -18 87 0 96 -2 91 -17 -3 -10 -28 -126 -56 -258 -28 -132 -54 -248
-56 -258 -5 -16 5 -17 147 -15 l153 3 48 220 c26 121 52 244 58 273 l11 52 94
0 c80 0 94 2 99 18 7 23 36 161 36 173 0 5 -88 9 -215 9 l-215 0 6 28 c3 15
15 61 25 104 10 42 19 79 19 82 0 3 -80 6 -177 6 l-178 0 -36 -158z"/>
<path d="M3230 777 c-115 -33 -221 -120 -274 -226 -34 -66 -66 -189 -66 -251
0 -175 107 -264 315 -264 194 1 326 76 373 212 l11 32 -108 0 -107 0 -17 -35
c-40 -85 -183 -96 -234 -19 -40 62 -10 242 57 340 76 109 250 111 250 3 0 -18
8 -19 105 -19 102 0 105 1 111 24 8 34 -12 100 -43 137 -44 52 -103 72 -223
76 -65 2 -122 -2 -150 -10z"/>
<path d="M3750 778 c0 -2 -36 -165 -79 -363 l-78 -360 90 -3 c50 -1 93 1 98 5
4 4 39 159 79 343 39 184 74 345 77 358 5 22 4 22 -91 22 -53 0 -96 -1 -96 -2z"/>
<path d="M5645 768 c-2 -7 -16 -70 -31 -141 l-27 -128 -21 19 c-36 33 -63 42
-128 42 -76 0 -136 -25 -191 -78 -49 -47 -73 -94 -93 -179 -40 -169 21 -263
169 -263 68 0 115 14 160 50 l27 21 0 -30 0 -31 89 0 88 0 7 43 c7 42 133 637
142 670 5 15 -4 17 -91 17 -68 0 -97 -4 -100 -12z m-109 -339 c13 -15 16 -32
12 -86 -8 -113 -64 -193 -134 -193 -39 0 -61 20 -69 63 -11 58 29 183 69 216
19 16 67 29 88 23 9 -2 24 -12 34 -23z"/>
<path d="M4139 557 c-145 -41 -238 -155 -246 -302 -6 -92 21 -148 87 -185 59
-32 208 -41 293 -16 113 33 205 143 224 267 25 159 -50 240 -227 246 -48 2
-105 -3 -131 -10z m138 -105 c38 -24 39 -110 2 -207 -24 -65 -56 -95 -107
-102 -57 -8 -82 19 -82 90 0 126 61 227 137 227 21 0 43 -4 50 -8z"/>
<path d="M1045 544 c-22 -8 -55 -29 -73 -47 l-33 -32 7 43 7 42 -97 0 c-89 0
-96 -1 -96 -20 0 -18 -84 -424 -96 -463 -5 -16 2 -18 92 -15 l98 3 36 161 c19
88 43 172 52 186 10 15 33 32 53 38 30 10 40 9 60 -4 33 -22 32 -53 -5 -221
-16 -74 -30 -142 -30 -150 0 -12 17 -15 94 -15 l93 0 33 153 c18 83 38 167 46
185 22 53 110 78 136 38 14 -21 8 -86 -22 -226 -16 -77 -30 -143 -30 -145 0
-3 42 -5 94 -5 82 0 95 2 100 18 2 9 21 95 41 189 34 160 36 176 24 215 -20
62 -64 88 -146 88 -69 0 -118 -16 -171 -56 -18 -14 -35 -24 -36 -23 -2 2 -9
15 -15 27 -26 49 -133 66 -216 36z"/>
<path d="M1873 546 c-82 -26 -119 -57 -143 -120 l-10 -26 90 0 89 0 16 30 c19
37 54 55 88 46 30 -7 39 -28 31 -71 l-6 -32 -96 -5 c-111 -6 -194 -33 -235
-76 -53 -55 -72 -144 -42 -201 39 -76 207 -75 294 3 l24 21 -5 -33 -5 -32 94
0 c90 0 93 1 93 23 0 12 16 102 37 200 35 169 36 179 20 211 -25 54 -83 76
-198 75 -52 0 -113 -6 -136 -13z m131 -283 c-23 -97 -105 -153 -156 -106 -54
49 23 132 125 133 36 0 37 -1 31 -27z"/>
<path d="M2320 546 c0 -2 22 -56 49 -120 l49 -115 -109 -125 c-60 -68 -109
-127 -109 -130 0 -3 42 -6 94 -6 l93 0 61 92 c38 57 63 86 66 78 3 -8 12 -50
21 -92 l17 -78 109 0 c60 0 109 3 109 6 0 3 -25 62 -55 131 l-55 124 106 120
105 119 -98 0 -98 0 -49 -75 c-27 -41 -50 -75 -51 -75 -2 0 -11 34 -20 75
l-16 75 -110 0 c-60 0 -109 -2 -109 -4z"/>
<path d="M4571 398 c-44 -204 -48 -246 -26 -291 41 -86 201 -92 289 -9 l28 27
-4 -37 -4 -38 93 0 c88 0 93 1 98 23 3 12 23 108 46 212 22 105 44 207 48 228
l9 37 -97 0 -96 0 -34 -158 c-45 -210 -57 -232 -133 -232 -68 0 -72 27 -28
227 17 75 30 143 30 150 0 10 -23 13 -93 13 l-93 0 -33 -152z"/>
</g>
</svg>
