<?xml version="1.0" standalone="no"?>
<!DOCTYPE svg PUBLIC "-//W3C//DTD SVG 20010904//EN"
 "http://www.w3.org/TR/2001/REC-SVG-20010904/DTD/svg10.dtd">
<svg version="1.0" xmlns="http://www.w3.org/2000/svg"
 width="3419.000000pt" height="444.000000pt" viewBox="0 0 3419.000000 444.000000"
 preserveAspectRatio="xMidYMid meet">

<g transform="translate(0.000000,444.000000) scale(0.100000,-0.100000)"
fill="#000000" stroke="none">
<path d="M23730 2250 l0 -2190 335 0 335 0 0 2190 0 2190 -335 0 -335 0 0
-2190z"/>
<path d="M33520 3549 l0 -892 -76 72 c-204 194 -443 292 -754 308 -468 24
-902 -192 -1182 -587 -391 -554 -378 -1373 30 -1904 180 -234 434 -411 701
-490 172 -51 451 -65 626 -32 238 44 425 138 583 289 l72 70 0 -161 0 -162
335 0 335 0 0 2190 0 2190 -335 0 -335 0 0 -891z m-542 -1168 c268 -78 462
-279 548 -568 38 -125 45 -373 16 -513 -70 -339 -300 -582 -617 -651 -97 -21
-314 -16 -410 10 -280 75 -480 277 -572 578 -25 82 -27 101 -27 278 -1 166 2
200 21 270 92 336 325 556 651 615 85 16 309 4 390 -19z"/>
<path d="M21475 4370 c-677 -57 -1278 -423 -1632 -993 -324 -524 -411 -1224
-228 -1856 190 -660 697 -1189 1345 -1405 243 -81 425 -108 715 -108 381 0
675 61 970 201 202 96 388 222 545 369 l65 61 -234 235 -234 235 -71 -65
c-150 -137 -358 -256 -541 -309 -174 -50 -252 -59 -500 -59 -199 0 -243 3
-328 22 -437 97 -771 361 -956 753 -221 470 -211 1074 26 1530 191 370 529
621 950 706 128 26 478 25 618 -1 269 -50 513 -169 690 -337 l76 -73 235 235
c129 128 233 237 232 240 -6 15 -159 147 -248 213 -296 222 -621 352 -985 395
-130 15 -394 21 -510 11z"/>
<path d="M117 4305 c-51 -18 -83 -49 -102 -100 -14 -35 -16 -83 -13 -311 3
-257 4 -271 25 -304 12 -20 40 -46 61 -58 l40 -22 657 0 c490 0 668 -3 699
-12 56 -17 110 -74 124 -131 9 -34 12 -459 12 -1615 l0 -1569 23 -34 c12 -18
38 -44 56 -56 34 -23 37 -23 368 -23 371 0 369 0 420 67 l28 36 5 1601 c5
1488 6 1603 22 1632 23 43 71 81 116 94 24 6 273 10 695 10 721 0 688 -3 741
60 43 51 48 92 44 369 -3 247 -4 257 -26 293 -13 20 -40 47 -60 60 l-37 23
-1930 2 c-1617 2 -1936 0 -1968 -12z"/>
<path d="M5805 4310 c-523 -56 -978 -371 -1209 -835 -96 -193 -139 -352 -156
-580 -7 -92 -10 -578 -8 -1420 l3 -1280 24 -41 c13 -23 40 -51 62 -63 37 -21
47 -22 331 -19 289 3 294 3 326 26 72 52 66 -68 72 1457 l5 1370 34 97 c126
365 480 562 846 472 223 -56 421 -241 502 -469 l28 -80 5 -1381 5 -1380 27
-41 c47 -71 59 -73 377 -73 319 0 337 4 382 77 l24 38 5 1380 5 1380 28 80
c43 122 82 182 181 280 103 102 185 152 306 184 152 40 280 36 422 -13 105
-37 174 -82 268 -176 92 -91 139 -168 182 -295 l23 -70 5 -1375 c6 -1539 -1
-1411 77 -1465 l38 -25 291 0 c286 0 292 0 325 23 48 32 77 80 84 140 4 29 5
653 2 1387 -4 1307 -4 1337 -25 1445 -149 779 -847 1313 -1630 1246 -322 -28
-582 -135 -865 -355 -61 -48 -106 -62 -159 -52 -38 7 -66 24 -160 98 -183 145
-423 251 -664 293 -106 18 -317 26 -419 15z"/>
<path d="M12032 4310 c-234 -25 -437 -83 -647 -185 -629 -306 -1064 -928
-1160 -1659 -19 -147 -19 -436 -1 -576 104 -769 580 -1405 1261 -1683 230 -94
454 -137 719 -137 409 0 754 107 1098 342 123 84 179 87 248 13 23 -24 25 -36
30 -148 6 -133 14 -158 63 -187 30 -19 52 -20 322 -20 273 0 292 1 323 20 67
41 62 -113 62 2102 0 1897 -1 2015 -18 2047 -9 19 -30 44 -45 55 -27 20 -43
21 -310 24 -254 2 -285 1 -316 -15 -66 -34 -75 -59 -81 -207 -6 -146 -15 -172
-72 -202 -65 -34 -95 -24 -241 73 -270 180 -518 283 -792 328 -114 19 -335 26
-443 15z m424 -785 c257 -45 470 -159 670 -359 269 -268 408 -604 407 -986 0
-381 -136 -714 -398 -975 -386 -386 -938 -481 -1420 -245 -368 181 -621 514
-712 940 -26 122 -26 440 1 560 139 638 641 1076 1237 1079 73 1 164 -6 215
-14z"/>
<path d="M14985 4300 c-51 -25 -75 -65 -75 -124 0 -46 8 -57 726 -1012 455
-606 723 -971 720 -980 -3 -8 -325 -439 -714 -957 -390 -518 -714 -952 -720
-964 -28 -52 -7 -132 44 -172 26 -20 36 -21 408 -21 376 0 381 1 421 23 32 18
143 159 560 714 286 381 523 692 526 693 3 0 241 -312 527 -693 410 -545 530
-698 561 -715 38 -22 47 -22 415 -22 317 0 382 2 406 15 51 26 78 105 57 162
-7 18 -334 461 -727 984 -393 522 -715 955 -714 962 1 7 324 441 719 966 394
525 721 968 726 985 20 68 -24 148 -92 166 -26 7 -162 10 -392 8 -333 -3 -354
-4 -392 -24 -33 -17 -128 -137 -562 -713 -287 -380 -525 -693 -530 -694 -4 -1
-236 302 -515 673 -279 371 -523 689 -542 707 -19 17 -51 36 -73 42 -23 7
-169 11 -383 11 -325 0 -347 -1 -385 -20z"/>
<path d="M26230 3030 c-41 -5 -118 -19 -170 -31 -519 -117 -959 -530 -1105
-1034 -40 -140 -57 -265 -57 -430 0 -168 12 -274 48 -411 137 -529 580 -959
1113 -1080 288 -65 620 -47 890 48 475 168 853 595 962 1088 83 377 22 795
-161 1108 -146 248 -378 465 -633 594 -105 52 -289 112 -407 133 -113 19 -375
27 -480 15z m410 -656 c226 -58 427 -220 532 -429 115 -227 123 -559 21 -797
-86 -199 -226 -346 -410 -429 -199 -91 -477 -98 -683 -17 -261 102 -441 324
-502 618 -29 138 -21 357 17 485 90 307 324 519 640 581 89 17 296 11 385 -12z"/>
<path d="M28250 2086 c0 -738 3 -915 15 -1009 59 -453 327 -809 733 -976 280
-116 674 -127 972 -29 297 98 544 312 682 593 53 109 88 214 114 345 15 75 18
192 21 1028 l4 942 -335 0 -335 0 -4 -927 c-3 -857 -4 -933 -21 -987 -33 -112
-77 -187 -151 -262 -110 -111 -229 -156 -415 -157 -194 -2 -326 47 -439 160
-104 106 -152 221 -171 413 -5 52 -10 470 -10 928 l0 832 -330 0 -330 0 0
-894z"/>
</g>
</svg>
