<?xml version="1.0" encoding="UTF-8"?>
<svg width="348px" height="105px" viewBox="0 0 348 105" version="1.1" xmlns="http://www.w3.org/2000/svg" xmlns:xlink="http://www.w3.org/1999/xlink">
    <!-- Generator: Sketch 54.1 (76490) - https://sketchapp.com -->
    <title>logo</title>
    <desc>Created with Sketch.</desc>
    <g id="Page-1" stroke="none" stroke-width="1" fill="none" fill-rule="evenodd">
        <g id="1_0_Login" transform="translate(-346.000000, -317.000000)" fill="#FEFEFE">
            <g id="logo" transform="translate(346.000000, 317.000000)">
                <polygon id="Fill-1" points="8.22067403 0 7 7.0907097 13.7425355 7.0907097 9.68350607 31 18.7916123 31 22.8456998 7.0907097 29.7760313 7.0907097 31 0"></polygon>
                <g id="Group-28" transform="translate(0.000000, 7.000000)">
                    <path d="M36.8944894,1.3674969 L36.6617186,3.0815169 C37.2792078,2.3118249 38.0437951,1.7151519 38.9473982,1.2979659 C39.8623166,0.8791629 41.0180882,0.6721869 42.4001646,0.6721869 C43.7903233,0.6721869 44.8814362,1.0182249 45.6815858,1.7151519 C46.4865846,2.4088449 47.0717445,3.1542819 47.4386817,3.9611649 C47.6569043,3.6199779 47.9252373,3.2674719 48.2533794,2.8987959 C48.5766721,2.5268859 48.9613905,2.1840819 49.4075344,1.8752349 C49.8569113,1.5696219 50.3790291,1.3157529 50.9803536,1.1152449 C51.5832945,0.9147369 52.2913056,0.8096319 53.0898386,0.8096319 C54.8162218,0.8096319 56.1918323,1.3788159 57.2231361,2.5010139 C58.2673717,3.6264459 58.7797906,5.1593619 58.7797906,7.1046129 C58.7797906,7.5120969 58.7587766,7.9147299 58.7070498,8.3351499 C58.6617888,8.7507189 58.6262266,9.0838209 58.5955138,9.3296049 L56.4633982,24.1849839 L49.1117216,24.1849839 L51.1436164,10.1639769 C51.1710963,9.9505329 51.2001926,9.6837279 51.2325219,9.3732639 C51.2745499,9.0708849 51.2858652,8.8024629 51.2858652,8.5906359 C51.2858652,8.1880029 51.1791786,7.7546469 50.9803536,7.2889509 C50.7879944,6.8281059 50.3580151,6.6017259 49.7081967,6.6017259 C49.3105466,6.6017259 48.8983484,6.7682769 48.4829172,7.1046129 C48.070719,7.4474169 47.7328781,7.8484329 47.4855592,8.3092779 L45.2176607,24.1849839 L38.0518774,24.1849839 L40.0886216,10.2076359 C40.1484307,9.9634689 40.1904588,9.6707919 40.2195551,9.3296049 C40.2583502,8.9884179 40.2728984,8.6973579 40.2728984,8.4483399 C40.2728984,7.9874949 40.1904588,7.6252869 40.0417441,7.3617159 C39.8849471,7.1013789 39.7119855,6.9073389 39.535791,6.7844469 C39.3498977,6.6567039 39.1704702,6.5855559 39.002358,6.5548329 C38.8310128,6.5224929 38.7275592,6.5063229 38.6952299,6.5063229 C38.2701,6.5063229 37.8659841,6.6356829 37.5022797,6.9008709 C37.1240272,7.1644419 36.8152827,7.4926929 36.5695802,7.8937089 L34.1658988,24.1849839 L27.0372941,24.1849839 L30.3267976,1.3674969 L36.8944894,1.3674969 Z" id="Fill-2"></path>
                    <path d="M64.1881547,3.1740093 C64.6536962,2.8667793 65.2081432,2.5546983 65.8563451,2.2490853 C66.5013141,1.9402383 67.19801,1.6701993 67.9399668,1.4373513 C68.6819236,1.2077373 69.4368121,1.0217823 70.2062488,0.8843373 C70.9756855,0.7436583 71.730574,0.6725103 72.4741473,0.6725103 C73.6169871,0.6725103 74.6854695,0.7646793 75.6892935,0.9506343 C76.6866515,1.1382063 77.5352949,1.5052653 78.2319908,2.0631303 C78.9303031,2.6161443 79.4362562,3.4100913 79.7595489,4.4449713 C80.0860746,5.4782343 80.1394179,6.8284293 79.9195788,8.4971733 L78.909289,16.8231063 C78.8074518,17.6299893 78.8753433,18.1070043 79.0935659,18.2622363 C79.3020897,18.4190853 79.5316275,18.4934673 79.7805629,18.4934673 C80.0246489,18.4934673 80.3188453,18.4029153 80.6615356,18.2185773 L79.3683647,24.1885413 C78.909289,24.3389223 78.4291993,24.4601973 77.932945,24.5572173 C77.4399236,24.6493863 76.8838601,24.6962793 76.2647545,24.6962793 C74.0728298,24.6962793 72.53234,23.6613993 71.6416685,21.5997243 C70.9627538,22.5521373 70.151289,23.3056593 69.2088907,23.8635243 C68.264876,24.4181553 67.1543654,24.6962793 65.8563451,24.6962793 C64.8719188,24.6962793 63.9909461,24.5927913 63.21666,24.3939003 C62.4456069,24.1950093 61.794172,23.8635243 61.2704378,23.3962113 C60.7499365,22.9353663 60.3522865,22.3095873 60.0726382,21.5253423 C59.7881406,20.7362463 59.66044,19.7579613 59.66044,18.5856363 C59.66044,17.9388363 59.7525784,17.2645473 59.9530199,16.5740883 C60.1615437,15.8755443 60.4783706,15.2012553 60.926131,14.5318173 C61.3787409,13.8720813 61.9461196,13.2463023 62.6395825,12.6609483 C63.3395113,12.0755943 64.175223,11.5678563 65.1644987,11.1312663 C66.3978605,10.6089753 67.6005094,10.2305973 68.7675962,10.0026003 C69.9427652,9.7697523 71.2375526,9.6193713 72.6600406,9.5595423 L72.7942071,8.4001533 C72.9202913,7.6902903 72.731165,7.1938713 72.2381436,6.8963433 C71.7499716,6.6052833 71.176127,6.4565193 70.5263086,6.4565193 C69.0456279,6.4565193 67.7136619,6.6602613 66.5255611,7.0580433 C65.3439262,7.4606763 64.2188675,8.0039883 63.1762484,8.6782773 L64.1881547,3.1740093 Z M68.8225559,19.2324363 C69.8360786,19.2324363 70.62168,18.9543123 71.176127,18.4029153 L72.0053728,13.3578753 C71.4541587,13.4193213 70.9142599,13.5502983 70.3921421,13.7475723 C69.865175,13.9496973 69.3947841,14.2116513 68.9793529,14.5318173 C68.5655382,14.8633023 68.2293138,15.2529993 67.9852278,15.7154613 C67.7330594,16.1763063 67.6150576,16.7196183 67.6150576,17.3373123 C67.6150576,18.1070043 67.7201277,18.6179763 67.9399668,18.8653773 C68.15334,19.1079273 68.4475364,19.2324363 68.8225559,19.2324363 L68.8225559,19.2324363 Z" id="Fill-4"></path>
                    <polygon id="Fill-6" points="97.5039552 11.9206857 102.550555 24.1856307 94.4973329 24.1856307 91.489094 16.6423257 87.001791 24.1856307 80.6652535 24.1856307 88.8106138 11.5034997 84.6886315 1.3681437 92.55596 1.3681437 94.8691195 6.9678147 98.3412834 1.3681437 104.446667 1.3681437"></polygon>
                    <polygon id="Fill-8" points="28.8847504 63.3804171 16.7531908 63.3804171 13.5962373 82.2314031 0.000161646364 82.2314031 7.83839384 35.3901471 21.4393189 35.3901471 18.5571642 52.6047291 30.6887238 52.6047291 33.5692621 35.3901471 47.1637213 35.3901471 39.3368043 82.2314031 25.7358793 82.2314031"></polygon>
                    <path d="M53.9431698,80.579961 L48.7801849,45.956757 L61.0200476,45.956757 L62.2776563,57.853026 C62.3924252,58.973607 62.447385,60.035976 62.447385,61.056303 C62.447385,62.083098 62.3956581,63.067851 62.2954374,64.031583 C62.7238003,62.867343 63.1440808,61.782336 63.556279,60.770094 C63.9668608,59.76432 64.3531956,58.879821 64.7104341,58.124682 L70.3454263,45.956757 L81.9176895,45.956757 L56.8851336,97.011915 L46.1792949,97.011915 L53.9431698,80.579961 Z" id="Fill-10"></path>
                    <path d="M180.224704,47.2197957 C179.56357,46.6425267 178.82323,46.1493417 177.911544,45.8938557 C177.004708,45.5656047 176.091406,45.4039047 175.182954,45.4039047 C173.69904,45.4039047 172.292717,45.8130057 170.889626,46.6425267 C169.481687,47.4607287 168.078596,48.7090527 166.677122,50.2775427 L167.255816,45.8938557 L155.858131,45.8938557 L149.489264,82.2601857 L161.058294,82.2601857 L164.2007,64.3308897 C164.609665,61.7598597 165.359704,59.9439687 166.424954,58.7004957 C167.499902,57.4683417 168.909458,56.8846047 170.640691,56.8846047 C171.382648,56.8846047 172.129454,57.0479217 172.874644,57.3034077 C173.529311,57.5475747 174.193678,57.8806767 174.770756,58.2881607 L180.224704,47.2197957 Z" id="Fill-12"></path>
                    <path d="M76.0132328,97.02 L85.0040035,45.990714 L96.0056551,45.990714 L95.8440087,48.813996 C97.0563564,47.63682 98.2735536,46.778193 99.4762025,46.220328 C100.680468,45.673782 101.929994,45.398892 103.210234,45.398892 C106.81818,45.398892 109.432002,47.069253 111.056548,50.406741 C112.679478,53.744229 112.997921,58.187745 112.021577,63.722736 C111.056548,69.235089 109.073147,73.707711 106.082689,77.132517 C103.088999,80.557323 99.7607001,82.269726 96.1155746,82.269726 C94.8563494,82.269726 93.7684694,82.032027 92.8487016,81.555012 C91.9321667,81.086082 91.1336337,80.34873 90.4579519,79.357509 L87.3349441,97.02 L76.0132328,97.02 Z M91.9547972,70.813281 C92.316885,71.254722 92.7145351,71.576505 93.1331992,71.785098 C93.5615621,72.00501 94.0060896,72.103647 94.4926451,72.103647 C95.9135166,72.103647 97.1355632,71.369529 98.1555517,69.901293 C99.1803897,68.437908 99.9223465,66.348744 100.407286,63.635418 C100.884142,60.962517 100.866361,58.852332 100.362025,57.298395 C99.8576879,55.741224 98.9524683,54.963447 97.6366669,54.963447 C97.1565772,54.963447 96.6554735,55.099275 96.1349722,55.377399 C95.6225532,55.655523 95.0567909,56.07756 94.4522335,56.653212 L91.9547972,70.813281 Z" id="Fill-14"></path>
                    <path d="M126.600301,66.8196144 C126.556656,67.0589304 126.496847,67.4033514 126.454819,67.8383244 C126.407942,68.2732974 126.383695,68.6581434 126.383695,69.0025644 C126.383695,70.7990514 126.978553,72.0554604 128.163421,72.7831104 C129.353138,73.5026754 130.76916,73.8665004 132.411488,73.8665004 C134.926705,73.8665004 137.330386,73.5447174 139.601518,72.8898324 C141.877499,72.2333304 143.96597,71.3261934 145.850766,70.1635704 L144.615788,79.0311984 C143.93849,79.5146814 143.11571,79.9933134 142.140982,80.4848814 C141.179186,80.9635134 140.081607,81.4065714 138.874109,81.7898004 C137.664994,82.1746464 136.384755,82.4883444 135.028542,82.7325114 C133.673946,82.9799124 132.266006,83.0963364 130.812805,83.0963364 C128.394575,83.0963364 126.194568,82.7114904 124.209551,81.9417984 C122.224534,81.1624044 120.507849,80.0434404 119.078895,78.5946084 C117.656407,77.1393084 116.54428,75.3557574 115.742514,73.2536574 C114.934283,71.1499404 114.541482,68.7810354 114.541482,66.1711974 C114.541482,63.4530204 114.95368,60.8496504 115.779693,58.3530024 C116.59924,55.8563544 117.790574,53.6442984 119.33268,51.7038984 C120.887718,49.7651154 122.753117,48.2305824 124.93211,47.0922144 C127.111103,45.9538464 129.579443,45.3862794 132.33713,45.3862794 C135.104516,45.3862794 137.446772,45.7808274 139.388145,46.5844764 C141.318202,47.3832744 142.90072,48.5248764 144.109835,49.9995804 C145.31895,51.4775184 146.185374,53.2869414 146.725273,55.4504874 C147.250624,57.6043314 147.518957,60.0443844 147.518957,62.7528594 C147.518957,63.5726784 147.49471,64.2873924 147.447832,64.8937674 C147.404188,65.5001424 147.333063,66.1404744 147.232843,66.8196144 L126.600301,66.8196144 Z M135.89335,59.9150244 C135.94831,59.6724744 135.967708,59.4008184 135.967708,59.0790354 L135.967708,58.2446634 C135.967708,57.7660314 135.930529,57.2388894 135.861021,56.6810244 C135.789897,56.1263934 135.616935,55.6057194 135.353451,55.1222364 C135.081885,54.6355194 134.739195,54.2377374 134.297901,53.9224224 C133.861455,53.6087244 133.290844,53.4502584 132.556969,53.4502584 C132.311267,53.4502584 131.960494,53.5020024 131.501418,53.5941714 C131.042343,53.6944254 130.562253,53.9579964 130.044985,54.3994374 C129.542265,54.8360274 129.047627,55.4844444 128.559455,56.3624754 C128.076132,57.2243364 127.715661,58.4160654 127.474808,59.9150244 L135.89335,59.9150244 Z" id="Fill-16"></path>
                    <path d="M294.054295,78.9676503 C292.282651,80.4746943 290.535254,81.5968923 288.823419,82.3358613 C287.111584,83.0651283 285.399749,83.4386553 283.676599,83.4386553 C280.422657,83.4386553 278.187088,82.3536483 276.966658,80.1771663 C275.755927,78.0006843 275.54417,74.6777493 276.328155,70.2115953 L280.642496,45.7706403 L292.335994,45.7706403 L288.327165,68.5331493 C287.999022,70.3571253 288.01842,71.6458743 288.39344,72.4220343 C288.760377,73.1965773 289.510416,73.5830403 290.653256,73.5830403 C291.180223,73.5830403 291.766999,73.4763183 292.423283,73.2596403 C293.073102,73.0478133 293.810209,72.7357323 294.60066,72.3395673 L299.29487,45.7706403 L310.989985,45.7706403 L306.984388,68.4636183 C306.698274,70.1081073 306.728987,71.1785613 307.084609,71.6668953 C307.435381,72.1616973 308.248462,72.4495233 309.531935,72.5416923 L305.393788,82.8112593 C304.511199,83.0344053 303.693268,83.1961053 302.949695,83.2931253 C302.199656,83.3869113 301.507809,83.4386553 300.86769,83.4386553 C298.950564,83.4386553 297.43917,83.0764473 296.320577,82.3487973 C295.200368,81.6195303 294.447096,80.4908643 294.054295,78.9676503" id="Fill-18"></path>
                    <path d="M253.042835,64.2962859 C253.542322,61.5247479 254.292361,59.2657989 255.383474,57.6665859 C256.476203,56.0770749 257.652989,55.2346179 258.997887,55.2346179 C260.329853,55.2346179 261.252853,56.0770749 261.760423,57.6665859 C262.256677,59.2657989 262.256677,61.5247479 261.760423,64.2962859 C261.252853,67.1422059 260.494732,69.4092399 259.405236,71.0003679 C258.318972,72.5963469 257.145419,73.4355699 255.724548,73.4355699 C254.463706,73.4355699 253.542322,72.5963469 253.042835,71.0003679 C252.533649,69.4092399 252.533649,67.1422059 253.042835,64.2962859 M271.651564,50.3755329 C269.390131,46.9361739 265.702978,45.1801119 260.666077,45.2609619 C255.724548,45.1801119 251.445769,46.9361739 247.925111,50.3755329 C244.404453,53.7291909 242.139787,58.3360239 241.134347,64.2962859 C240.043234,70.1643789 240.71245,74.7744459 242.973883,78.2105709 C245.327454,81.6531639 249.012991,83.3283759 253.95937,83.3283759 C258.997887,83.3283759 263.266967,81.6531639 266.792474,78.2105709 C270.224227,74.7744459 272.495358,70.1643789 273.586471,64.2962859 C274.669502,58.3360239 274.003519,53.7291909 271.651564,50.3755329" id="Fill-20"></path>
                    <path d="M329.502858,72.8487606 L332.517563,55.7780916 C331.92917,55.5258396 331.439381,55.3576716 331.057896,55.2638856 C330.668328,55.1749506 330.325638,55.1312916 330.033058,55.1312916 C328.458622,55.1312916 327.137972,55.8928986 326.061407,57.4047936 C324.978376,58.9247736 324.186309,61.1319786 323.681972,64.0215576 C323.151772,66.9919866 323.184102,69.2008086 323.759563,70.6593426 C324.335024,72.1227276 325.448767,72.8487606 327.112108,72.8487606 L329.502858,72.8487606 Z M339.355204,82.4779956 L327.973683,82.4779956 C324.192775,82.4779956 321.404375,82.2063396 319.606868,81.6662616 C317.806127,81.1261836 316.27372,80.2287486 315.011261,78.9594036 C313.359236,77.3132976 312.28752,75.1740066 311.778334,72.5463816 C311.267532,69.9219906 311.345122,66.7656066 311.99494,63.0901656 C312.92764,57.7928736 314.917507,53.4884196 317.975856,50.1768036 C321.019657,46.8571026 324.490204,45.2029116 328.361635,45.2029116 C329.502858,45.2029116 330.561642,45.3435906 331.516972,45.6217146 C332.472302,45.9014556 333.325794,46.3121736 334.088765,46.8522516 L336.14814,35.1629586 L347.691307,35.1629586 L339.355204,82.4779956 Z" id="Fill-22"></path>
                    <polygon id="Fill-24" points="234.605127 82.4779956 221.204643 82.4779956 229.071972 35.1855966 242.470839 35.1855966"></polygon>
                    <path d="M218.145163,78.1703076 C216.168228,79.6805856 213.732217,80.9143566 210.840364,81.8780886 C207.943661,82.8418206 204.804488,83.3269206 201.413148,83.3269206 C198.451786,83.3269206 195.74421,82.9226706 193.293651,82.1238726 C190.846325,81.3250746 188.761087,80.0524956 187.046019,78.3093696 C185.329334,76.5710946 183.997368,74.3121456 183.061436,71.5341396 C182.117421,68.7561336 181.64703,65.4121776 181.64703,61.5038886 C181.64703,58.4477586 182.130353,55.3075446 183.090532,52.0848636 C184.06041,48.8589486 185.505529,45.9224766 187.435587,43.2625116 C189.365644,40.6025466 191.745079,38.4212136 194.569041,36.7282146 C197.386537,35.0319816 200.679273,34.1846736 204.448866,34.1846736 C206.378924,34.1846736 208.376873,34.5129246 210.447563,35.1694266 C212.518253,35.8243116 214.42568,36.8737446 216.168228,38.3258106 C217.902693,39.7746426 219.354278,41.6374266 220.510049,43.9093116 C221.660971,46.1811966 222.28331,48.9656706 222.377065,52.2643506 L209.531028,54.1675596 C209.579522,53.1342966 209.547193,52.0492896 209.427574,50.9173896 C209.309572,49.7871066 209.046089,48.7764816 208.650055,47.8822806 C208.255638,46.9896966 207.715739,46.2507276 207.036825,45.6621396 C206.361143,45.0735516 205.460773,44.7808746 204.332481,44.7808746 C203.210655,44.7808746 202.26664,45.0638496 201.490738,45.6297996 C200.724534,46.1925156 200.074716,46.9169316 199.562297,47.7852606 C199.046645,48.6600576 198.63768,49.6173216 198.328935,50.6522016 C198.026656,51.6870816 197.779337,52.6815366 197.593444,53.6210136 C197.266918,55.0843986 196.993736,56.7256536 196.785212,58.5415446 C196.575072,60.3639036 196.448988,62.0439666 196.400494,63.6027546 C196.306739,66.2934426 196.891899,68.3826066 198.160823,69.8702466 C199.423281,71.3562696 201.586109,72.0968556 204.63476,72.0968556 C207.591272,72.0968556 210.369973,71.5955856 212.975712,70.5817266 C215.574986,69.5711016 217.959269,68.2386936 220.117248,66.5893536 L218.145163,78.1703076 Z" id="Fill-26"></path>
                </g>
            </g>
        </g>
    </g>
</svg>