<?xml version="1.0" encoding="UTF-8"?>
<svg width="217px" height="56px" viewBox="0 0 217 56" version="1.1" xmlns="http://www.w3.org/2000/svg" xmlns:xlink="http://www.w3.org/1999/xlink">
    <!-- Generator: Sketch 63 (92445) - https://sketch.com -->
    <title>Mask</title>
    <desc>Created with Sketch.</desc>
    <defs>
        <rect id="path-1" x="0" y="0" width="217" height="56"></rect>
        <polygon id="path-3" points="0.16868883 0.0650769231 11.5609495 0.0650769231 11.5609495 14.0916 0.16868883 14.0916"></polygon>
    </defs>
    <g id="Page-1" stroke="none" stroke-width="1" fill="none" fill-rule="evenodd">
        <g id="3_0_1_Service-Catalog">
            <g id="GNB">
                <g id="Logo">
                    <g id="gnb_logo_bg">
                        <mask id="mask-2" fill="white">
                            <use xlink:href="#path-1"></use>
                        </mask>
                        <g id="Mask"></g>
                        <ellipse id="Oval-Copy" fill="#EC3854" opacity="0.41796875" mask="url(#mask-2)" cx="73.5" cy="-27" rx="151.5" ry="82"></ellipse>
                        <ellipse id="Oval" fill="#EC3854" mask="url(#mask-2)" cx="53" cy="-5.5" rx="131" ry="74.5"></ellipse>
                    </g>
                    <g id="+logo" transform="translate(18.000000, 19.000000)">
                        <path d="M12.630013,1.057014 C15.425525,1.057014 17.727411,3.028137 18.064246,5.573337 C18.079978,5.573127 18.095342,5.571006 18.111166,5.571006 C20.247958,5.571006 21.980318,7.303275 21.980318,9.439962 C21.980318,11.576838 20.247958,13.270929 18.111166,13.270929 L12.002,13.27 L12.0021694,13.8069385 C12.945922,14.049845 13.6888964,14.7928188 13.9317847,15.7365372 L18.200613,15.736497 L18.200613,16.962456 L13.9589662,16.9628977 C13.703264,18.1798076 12.6237091,19.093494 11.33072,19.093494 C10.037751,19.093494 8.95819864,18.1798076 8.70249678,16.9628977 L4.461034,16.962456 L4.461034,15.736497 L8.72967825,15.7365372 C8.97257171,14.7927973 9.71557238,14.0498111 10.6593445,13.8069218 L10.659,13.27 L4.569456,13.270929 L4.569456,13.313139 C3.067717,12.781398 1.990052,11.123931 1.990052,9.439962 C1.990052,7.303275 3.72232,5.571006 5.859204,5.571006 C6.320308,5.571006 6.760712,5.655867 7.170894,5.803833 C7.394546,3.148026 9.750482,1.057014 12.630013,1.057014 Z M11.33072,15.065106 C10.589154,15.065106 9.988141,15.666273 9.988141,16.407888 C9.988141,17.149461 10.589154,17.750733 11.33072,17.750733 C12.072309,17.750733 12.673598,17.149461 12.673598,16.407888 C12.673598,15.666273 12.072309,15.065106 11.33072,15.065106 Z M18.521532,8.185989 L14.493013,8.185989 L14.493013,9.528771 L15.611,9.528 L15.164498,12.214377 L16.507284,12.214377 L16.954,9.528 L18.521532,9.528771 L18.521532,8.185989 Z" id="Combined-shape-15086" fill="#FFFFFF"></path>
                        <g id="logo" transform="translate(28.000000, 2.000000)">
                            <polygon id="Fill-1" fill="#FEFEFE" points="9.25299883 1 8.45949003 5.77733283 5.11525807 5.77733283 5.90965796 1 2.16087463 1 -2.27373675e-13 14 3.74833779 14 4.61847968 8.76849518 7.96182055 8.76849518 7.09390637 14 10.8426897 14 13 1"></polygon>
                            <g id="Group-21" transform="translate(13.000000, 0.000000)">
                                <path d="M2.42842287,13.3075385 L0.984779255,3.42507692 L4.40828989,3.42507692 L4.75959309,6.82061538 C4.79169415,7.14046154 4.80751862,7.44369231 4.80751862,7.73492308 C4.80751862,8.028 4.79305053,8.30907692 4.76501862,8.58415385 C4.88438032,8.25184615 5.00238564,7.94215385 5.11722606,7.65323077 C5.23206649,7.36615385 5.34057713,7.11369231 5.44049734,6.89815385 L7.01661436,3.42507692 L10.2533963,3.42507692 L3.25129521,17.9976923 L0.256853723,17.9976923 L2.42842287,13.3075385 Z" id="Fill-2" fill="#FEFEFE"></path>
                                <path d="M37.749992,3.78558462 C37.5646197,3.62081538 37.3579973,3.48004615 37.1025452,3.40712308 C36.8493537,3.31343077 36.5939016,3.26727692 36.3398059,3.26727692 C35.9247527,3.26727692 35.5309495,3.38404615 35.1389548,3.62081538 C34.7451516,3.85435385 34.3527048,4.21066154 33.9607101,4.65835385 L34.1225718,3.40712308 L30.9346197,3.40712308 L29.1532367,13.7871231 L32.3891144,13.7871231 L33.2675984,8.66958462 C33.3824388,7.93573846 33.5917739,7.41743077 33.8901782,7.06250769 C34.190391,6.71081538 34.5850984,6.5442 35.068875,6.5442 C35.2764016,6.5442 35.4857367,6.59081538 35.6941676,6.66373846 C35.8768271,6.73343077 36.0626516,6.82850769 36.2240612,6.94481538 L37.749992,3.78558462 Z" id="Fill-4" fill="#FEFEFE"></path>
                                <path d="M8.60190957,18 L11.1161915,3.43476923 L14.1933723,3.43476923 L14.1486117,4.24061538 C14.4877074,3.90461538 14.8281596,3.65953846 15.1640904,3.50030769 C15.5013777,3.34430769 15.8508723,3.26584615 16.2085053,3.26584615 C17.2181064,3.26584615 17.9491968,3.74261538 18.403133,4.69523077 C18.8570691,5.64784615 18.9461383,6.91615385 18.6730532,8.496 C18.403133,10.0693846 17.8483723,11.346 17.0123883,12.3235385 C16.1750479,13.3010769 15.244117,13.7898462 14.2245691,13.7898462 C13.8719096,13.7898462 13.5680798,13.722 13.310367,13.5858462 C13.0544628,13.452 12.8311117,13.2415385 12.6421223,12.9586154 L11.7686117,18 L8.60190957,18 Z M13.0603404,10.5198462 C13.1620691,10.6458462 13.2732926,10.7376923 13.3899415,10.7972308 C13.5097553,10.86 13.6345426,10.8881538 13.770633,10.8881538 C14.1680532,10.8881538 14.5094096,10.6786154 14.7947021,10.2595385 C15.0818032,9.84184615 15.2893298,9.24553846 15.424516,8.47107692 C15.5578936,7.70815385 15.5533723,7.10584615 15.4123085,6.66230769 C15.2707926,6.21784615 15.0180532,5.99584615 14.6500213,5.99584615 C14.5157394,5.99584615 14.3755798,6.03461538 14.2295426,6.114 C14.0866702,6.19338462 13.9284255,6.31384615 13.7588777,6.47815385 L13.0603404,10.5198462 Z" id="Fill-6" fill="#FEFEFE"></path>
                                <path d="M22.7511995,9.37993846 C22.738992,9.44824615 22.7222633,9.54655385 22.710508,9.67070769 C22.6973963,9.79486154 22.6901622,9.90470769 22.6901622,10.0030154 C22.6901622,10.5157846 22.8569973,10.8744 23.1884069,11.0820923 C23.5211729,11.2874769 23.9167846,11.3913231 24.3761463,11.3913231 C25.0796569,11.3913231 25.7519707,11.2994769 26.3876622,11.1125538 C27.024258,10.9251692 27.6079548,10.6662462 28.1351356,10.3344 L27.7901622,12.8654769 C27.6002686,13.0034769 27.3705878,13.1400923 27.0975027,13.2804 C26.8284867,13.4170154 26.5219441,13.5434769 26.1837527,13.6528615 C25.8455612,13.7627077 25.4879282,13.8522462 25.108141,13.9219385 C24.729258,13.9925538 24.3354548,14.0257846 23.928992,14.0257846 C23.252609,14.0257846 22.6372633,13.9159385 22.0820505,13.6962462 C21.5272899,13.4737846 21.0466782,13.1544 20.6469973,12.7408615 C20.2495771,12.3254769 19.9385133,11.8164 19.714258,11.2164 C19.4881941,10.6159385 19.377875,9.93978462 19.377875,9.19486154 C19.377875,8.41901538 19.4936197,7.67593846 19.7242048,6.96332308 C19.9538856,6.25070769 20.2866516,5.61932308 20.7184335,5.06547692 C21.1529282,4.51209231 21.6746835,4.07409231 22.2841516,3.74916923 C22.8940718,3.42424615 23.5840186,3.26224615 24.3558005,3.26224615 C25.129391,3.26224615 25.7845239,3.37486154 26.3275293,3.60424615 C26.8678218,3.83224615 27.3104548,4.15809231 27.6486463,4.57901538 C27.9868378,5.00086154 28.2287261,5.51732308 28.3797367,6.13486154 C28.5271303,6.74963077 28.6021835,7.44609231 28.6021835,8.21916923 C28.6021835,8.45316923 28.5954016,8.65716923 28.5818378,8.83024615 C28.5696303,9.00332308 28.5501888,9.18609231 28.5221569,9.37993846 L22.7511995,9.37993846 Z M25.3500293,7.40916923 C25.3658537,7.33993846 25.3712793,7.2624 25.3712793,7.17055385 L25.3712793,6.9324 C25.3712793,6.79578462 25.3604282,6.64532308 25.3414388,6.48609231 C25.3210931,6.32778462 25.2731676,6.17916923 25.1990186,6.04116923 C25.1230612,5.90224615 25.0276622,5.78870769 24.9042314,5.69870769 C24.7821569,5.60916923 24.6225559,5.56393846 24.4168378,5.56393846 C24.3485665,5.56393846 24.2504548,5.57870769 24.1215984,5.60501538 C23.9936463,5.63363077 23.8593644,5.70886154 23.7146835,5.83486154 C23.5740718,5.95947692 23.4357207,6.14455385 23.2987261,6.39516923 C23.1635399,6.64116923 23.0627154,6.98132308 22.9958005,7.40916923 L25.3500293,7.40916923 Z" id="Fill-8" fill="#FEFEFE"></path>
                                <path d="M69.5879176,12.8473385 C69.0923856,13.2774923 68.6040878,13.5978 68.1248324,13.8087231 C67.6460293,14.0168769 67.1672261,14.1234923 66.685258,14.1234923 C65.7755771,14.1234923 65.1498324,13.8138 64.8089282,13.1925692 C64.4698324,12.5713385 64.4106037,11.6228769 64.6303378,10.3481077 L65.8366144,3.37195385 L69.107758,3.37195385 L67.9860293,9.86903077 C67.8942473,10.3896462 67.8996729,10.7574923 68.0045665,10.9790308 C68.1071995,11.2001077 68.3169867,11.3104154 68.636641,11.3104154 C68.7844867,11.3104154 68.948609,11.2799538 69.1321729,11.2181077 C69.3134761,11.1576462 69.5200984,11.0685692 69.7407367,10.9554923 L71.0537154,3.37195385 L74.324859,3.37195385 L73.2049388,9.84918462 C73.1244601,10.3185692 73.1335027,10.6241077 73.2325186,10.7634923 C73.3310824,10.9047231 73.5580505,10.9868769 73.917492,11.0131846 L72.7600452,13.9444154 C72.5127314,14.0081077 72.2839548,14.0542615 72.0764282,14.0819538 C71.8661888,14.1087231 71.6726782,14.1234923 71.4936356,14.1234923 C70.9574122,14.1234923 70.5346729,14.0201077 70.2218005,13.8124154 C69.9084761,13.6042615 69.6982367,13.2821077 69.5879176,12.8473385" id="Fill-10" fill="#FEFEFE"></path>
                                <path d="M58.1169415,8.65970769 C58.2566489,7.86863077 58.4664362,7.22386154 58.7720745,6.7674 C59.0777128,6.31370769 59.4064096,6.07324615 59.7825798,6.07324615 C60.155133,6.07324615 60.41375,6.31370769 60.555266,6.7674 C60.6945213,7.22386154 60.6945213,7.86863077 60.555266,8.65970769 C60.41375,9.47201538 60.2017021,10.1190923 59.896516,10.5732462 C59.5926862,11.0287846 59.2648936,11.2683231 58.8674734,11.2683231 C58.5143617,11.2683231 58.2566489,11.0287846 58.1169415,10.5732462 C57.9749734,10.1190923 57.9749734,9.47201538 58.1169415,8.65970769 M63.3218351,4.68632308 C62.6893085,3.70463077 61.6580053,3.2034 60.2496277,3.22647692 C58.8674734,3.2034 57.6702394,3.70463077 56.6855053,4.68632308 C55.7007713,5.64355385 55.0677926,6.95847692 54.786117,8.65970769 C54.481383,10.3346308 54.6685638,11.6504769 55.3006383,12.6312462 C55.9589362,13.6138615 56.9902394,14.0920154 58.37375,14.0920154 C59.7825798,14.0920154 60.9771011,13.6138615 61.9627394,12.6312462 C62.9226064,11.6504769 63.5582979,10.3346308 63.8630319,8.65970769 C64.1659574,6.95847692 63.9796809,5.64355385 63.3218351,4.68632308" id="Fill-12" fill="#FEFEFE"></path>
                                <path d="M79.5029415,11.1008308 L80.3461596,6.22836923 C80.1820372,6.15636923 80.0450426,6.10836923 79.9383404,6.0816 C79.8289255,6.05621538 79.7335266,6.04375385 79.6512394,6.04375385 C79.2113191,6.04375385 78.8414787,6.26113846 78.5403617,6.69267692 C78.2374362,7.12652308 78.0158936,7.75652308 77.8752819,8.58129231 C77.726984,9.42913846 77.7360266,10.0596 77.8965319,10.4759077 C78.0574894,10.8936 78.3690053,11.1008308 78.8342447,11.1008308 L79.5029415,11.1008308 Z M82.2591117,13.8492923 L79.0756809,13.8492923 C78.0177021,13.8492923 77.2377819,13.7717538 76.7354681,13.6176 C76.2313457,13.4634462 75.8027287,13.2072923 75.449617,12.8449846 C74.9879947,12.3751385 74.6877819,11.7645231 74.5453617,11.0145231 C74.4024894,10.2654462 74.4246436,9.36452308 74.6063989,8.31544615 C74.8668245,6.80344615 75.4233936,5.57483077 76.2788191,4.6296 C77.1301755,3.68206154 78.1013457,3.20990769 79.1841915,3.20990769 C79.5029415,3.20990769 79.7995372,3.25006154 80.0662926,3.32944615 C80.3339521,3.40929231 80.5722234,3.52652308 80.7860798,3.68067692 L81.3616383,0.344215385 L84.5902819,0.344215385 L82.2591117,13.8492923 Z" id="Fill-14" fill="#FEFEFE"></path>
                                <polygon id="Fill-16" fill="#FEFEFE" points="52.959883 13.8492923 49.2121968 13.8492923 51.4127021 0.350676923 55.1603883 0.350676923"></polygon>
                                <g id="Group-20" transform="translate(37.978723, 0.000000)">
                                    <mask id="mask-4" fill="white">
                                        <use xlink:href="#path-3"></use>
                                    </mask>
                                    <g id="Clip-19"></g>
                                    <path d="M10.3777314,12.6197538 C9.82477926,13.0508308 9.14342287,13.4029846 8.33411436,13.6780615 C7.52435372,13.9531385 6.64586968,14.0916 5.69730585,14.0916 C4.86900798,14.0916 4.11169415,13.9762154 3.42626862,13.7482154 C2.74174734,13.5202154 2.15895479,13.1569846 1.67879521,12.6594462 C1.19908777,12.1632923 0.826534574,11.5185231 0.564300532,10.7256 C0.300257979,9.93267692 0.16868883,8.97821538 0.16868883,7.86267692 C0.16868883,6.99036923 0.303875,6.09406154 0.572890957,5.17421538 C0.844167553,4.25344615 1.24791755,3.41529231 1.78821011,2.65606154 C2.3275984,1.89683077 2.99358245,1.27421538 3.78299734,0.790984615 C4.57150798,0.306830769 5.49249202,0.0649846154 6.54685372,0.0649846154 C7.08669415,0.0649846154 7.64552394,0.158676923 8.22469947,0.346061538 C8.80342287,0.532984615 9.33738564,0.832523077 9.82477926,1.24698462 C10.3099122,1.66052308 10.7159229,2.19221538 11.0391941,2.84067692 C11.3606569,3.48913846 11.5347261,4.28390769 11.5609495,5.22544615 L7.96789096,5.76867692 C7.98190691,5.47375385 7.97241223,5.16406154 7.93940691,4.84098462 C7.90594947,4.51836923 7.83270479,4.22990769 7.72148138,3.97467692 C7.61116223,3.71990769 7.4601516,3.50898462 7.27025798,3.34098462 C7.08126862,3.17298462 6.82943351,3.08944615 6.51430053,3.08944615 C6.20007181,3.08944615 5.93602926,3.17021538 5.71946011,3.33175385 C5.5051516,3.49236923 5.32294415,3.69913846 5.18007181,3.94698462 C5.03539096,4.19667692 4.92145479,4.46990769 4.83464628,4.76529231 C4.7500984,5.06067692 4.68092287,5.34452308 4.62892819,5.61267692 C4.53805053,6.03036923 4.46118883,6.49883077 4.40286436,7.01713846 C4.34453989,7.53729231 4.30927394,8.01683077 4.29525798,8.46175385 C4.2694867,9.22975385 4.43315691,9.82606154 4.78807713,10.2506769 C5.14118883,10.6748308 5.74613564,10.8862154 6.59839628,10.8862154 C7.42578989,10.8862154 8.20254521,10.7431385 8.931375,10.4537538 C9.6588484,10.1652923 10.3257367,9.78498462 10.928875,9.31421538 L10.3777314,12.6197538 Z" id="Fill-18" fill="#FEFEFE" mask="url(#mask-4)"></path>
                                </g>
                            </g>
                        </g>
                    </g>
                </g>
            </g>
        </g>
    </g>
</svg>